<svg version="1.1" id="Capa_1" xmlns="http://www.w3.org/2000/svg" xmlns:xlink="http://www.w3.org/1999/xlink" x="0px" y="0px"
	 viewBox="0 0 16.645 16.645" xml:space="preserve">
<g>
	<g>
		<path d="M6.991,9.76c0-0.17-0.047-0.326-0.122-0.467l0.704,0.191L4.272,7.695v0.894l1.205,0.327
			C5.193,9.091,5.002,9.402,5.002,9.76c0,0.55,0.445,0.995,0.994,0.995C6.546,10.755,6.991,10.309,6.991,9.76z"/>
		<polygon points="6.104,13.141 10.901,13.588 10.901,13.117 6.104,12.672 		"/>
		<path d="M10.247,9.27c-0.084,0.145-0.134,0.311-0.134,0.489c0,0.55,0.444,0.995,0.993,0.995
			c0.549,0,0.994-0.445,0.994-0.995c0-0.366-0.201-0.686-0.499-0.857l1.156-0.313V7.695L9.456,9.484L10.247,9.27z"/>
		<path d="M16.58,0.8c-0.066-0.068-0.171-0.085-0.256-0.043l-2.609,1.292
			c-1.364-1.175-3.195-1.804-5.213-1.804c-2.08,0-3.959,0.673-5.336,1.921l-2.844-1.41C0.237,0.714,0.133,0.731,0.065,0.8
			c-0.067,0.067-0.084,0.17-0.041,0.256l1.595,3.191c-0.47,0.992-0.74,2.154-0.74,3.478c0,4.784,3.419,8.676,7.623,8.676
			s7.624-3.892,7.624-8.676c0-1.486-0.34-2.765-0.923-3.831l1.419-2.838C16.665,0.97,16.649,0.867,16.58,0.8z M4.486,3.668
			c-0.273,1-1.109,1.391-1.543,1.528L1.42,2.149L4.486,3.668z M14.869,7.725c0,4.091-2.857,7.419-6.366,7.419
			s-6.365-3.328-6.365-7.419c0-0.692,0.093-1.334,0.256-1.93L2.451,5.91C2.489,5.986,2.567,6.033,2.65,6.033
			c0.012,0,0.023-0.001,0.035-0.003l0.112-0.019c0.021-0.003,2.164-0.354,2.498-2.498L5.313,3.4
			c0.014-0.096-0.035-0.189-0.122-0.233L4.385,2.769c1.065-0.81,2.461-1.266,4.118-1.266c1.584,0,2.933,0.415,3.979,1.157
			l-1.026,0.508C11.37,3.212,11.321,3.305,11.335,3.4l0.018,0.115c0.332,2.128,2.475,2.494,2.495,2.497l0.114,0.019
			c0.012,0.002,0.023,0.003,0.034,0.003c0.085,0,0.162-0.047,0.2-0.123l0.279-0.56C14.727,6.065,14.869,6.857,14.869,7.725z
			 M13.704,5.196c-0.436-0.137-1.271-0.527-1.543-1.528l3.066-1.519L13.704,5.196z"/>
	</g>
</g>
</svg>
