<svg version="1.0" xmlns="http://www.w3.org/2000/svg"
 width="100%" height="100%" viewBox="0 0 64.000000 64.000000"
 preserveAspectRatio="xMidYMid meet">
<g transform="translate(0.000000,64.000000) scale(0.100000,-0.100000)"
stroke="none">
<path d="M206 526 l-78 -85 -61 -3 -62 -3 0 -115 0 -115 60 -3 60 -2 81 -87
c119 -128 115 -135 112 209 -3 251 -5 283 -19 286 -10 2 -47 -30 -93 -82z"/>
<path d="M461 543 c0 -10 19 -31 41 -48 58 -42 83 -95 83 -175 0 -80 -25 -133
-83 -175 -43 -31 -55 -65 -24 -65 27 0 83 45 114 91 59 88 59 210 0 298 -48
70 -133 118 -131 74z"/>
<path d="M404 455 c-4 -9 7 -30 25 -50 53 -61 53 -109 1 -169 -31 -35 -37 -51
-20 -61 15 -9 57 23 81 62 42 68 20 174 -46 217 -30 20 -34 20 -41 1z"/>
</g>
</svg>